<svg xmlns="http://www.w3.org/2000/svg" viewBox="0 0 48 48"><defs><style>.cls-1{fill:#fff;}.cls-2{fill:#330072;}</style></defs><title>D2IQ</title><g id="Layer_2" data-name="Layer 2"><g id="Layer_1-2" data-name="Layer 1"><rect class="cls-1" x="9" y="4" width="31" height="40"/><path class="cls-2" d="M31.12,28.54a2.59,2.59,0,0,0-2.59,2.6v5.18a2.59,2.59,0,0,0,4,2.15l-2.42-2.42L32,34.21l1.73,1.73v-4.8A2.59,2.59,0,0,0,31.12,28.54Z"/><path class="cls-2" d="M16.86,9.08H14.27V19.46h2.59a2.59,2.59,0,0,0,2.6-2.6V11.68A2.59,2.59,0,0,0,16.86,9.08Z"/><path class="cls-2" d="M0,0V48H48V0ZM22.05,28.54H18.16V38.92h3.89v2.59H11.68V38.92h3.89V28.54H11.68V26H22.05Zm0-11.68a5.19,5.19,0,0,1-5.19,5.19H11.68V6.49h5.18a5.19,5.19,0,0,1,5.19,5.19Zm3.9.65A4.54,4.54,0,0,1,30.49,13h1.29a1.95,1.95,0,1,0,0-3.89H26V6.49h5.83a4.54,4.54,0,0,1,0,9.08H30.49a1.94,1.94,0,0,0-1.95,1.94v1.95h7.77v2.59H25.93ZM36.39,42.28l-2-2a5.14,5.14,0,0,1-3.31,1.19,5.19,5.19,0,0,1-5.19-5.19V31.14a5.19,5.19,0,0,1,10.38,0v5.18A5.26,5.26,0,0,1,36,38.19l2.25,2.26Z"/></g></g></svg>